<svg width="21" height="14" viewBox="0 0 21 14" fill="none" xmlns="http://www.w3.org/2000/svg">
<path d="M11.6581 13.4141L20.5352 3.11347C20.6825 2.94429 20.7994 2.74301 20.8792 2.52124C20.9589 2.29946 21 2.06159 21 1.82134C21 1.58109 20.9589 1.34322 20.8792 1.12145C20.7994 0.89968 20.6825 0.698397 20.5352 0.529213C20.2409 0.190255 19.8427 -5.62103e-08 19.4276 -7.637e-08C19.0125 -9.65298e-08 18.6694 0.190255 18.375 0.529213L10.5033 9.72222L2.68671 0.529213C2.39233 0.190254 1.99411 -9.23082e-07 1.57903 -9.43242e-07C1.16395 -9.63401e-07 0.765731 0.190254 0.471352 0.529213C0.322895 0.697762 0.204788 0.898761 0.123878 1.12056C0.0429678 1.34236 0.000862905 1.58056 -7.16521e-08 1.82134C0.000862887 2.06213 0.0429677 2.30032 0.123878 2.52212C0.204788 2.74392 0.322895 2.94492 0.471352 3.11347L9.34849 13.4141C9.49561 13.5988 9.67418 13.7463 9.87293 13.8471C10.0717 13.9479 10.2863 14 10.5033 14C10.7203 14 10.9349 13.9479 11.1337 13.8471C11.3324 13.7463 11.511 13.5988 11.6581 13.4141Z" fill="white"/>
</svg>
