<?xml version="1.0" standalone="no"?>
<!DOCTYPE svg PUBLIC "-//W3C//DTD SVG 20010904//EN"
 "http://www.w3.org/TR/2001/REC-SVG-20010904/DTD/svg10.dtd">
<svg version="1.0" xmlns="http://www.w3.org/2000/svg"
 width="500.000000pt" height="500.000000pt" viewBox="0 0 500.000000 500.000000"
 preserveAspectRatio="xMidYMid meet">

<g transform="translate(0.000000,500.000000) scale(0.100000,-0.100000)"
fill="#000000" stroke="none">
<path d="M2316 3870 c-407 -64 -773 -337 -941 -703 -131 -286 -149 -616 -50
-913 108 -323 345 -588 659 -735 260 -122 604 -142 888 -53 175 56 362 169
493 298 242 240 367 539 366 876 0 253 -64 474 -194 674 -180 274 -443 461
-758 536 -106 26 -357 36 -463 20z m381 -244 c130 -28 305 -106 393 -175 l25
-20 -700 -701 -700 -701 -28 33 c-42 50 -134 242 -159 333 -18 67 -22 108 -22
255 -1 154 2 185 22 254 149 514 659 829 1169 722z m638 -435 c221 -333 218
-772 -8 -1105 -206 -305 -578 -477 -941 -437 -157 18 -301 71 -444 164 l-62
42 702 702 c387 387 704 703 705 703 1 0 22 -31 48 -69z"/>
</g>
</svg>
