<svg width="1920" height="2854" viewBox="0 0 1920 2854" fill="none" xmlns="http://www.w3.org/2000/svg">
<g style="mix-blend-mode:lighten" filter="url(#filter0_b_92_1855)">
<path d="M-55.9999 62C-204.5 154.5 -59.4995 489.5 156 694C371.5 898.5 753.5 1005.5 1042 1023C1330.5 1040.5 1518.5 911 1671.5 721C1824.5 531 1953 203 1953 203V1180C1950.26 1237.18 1952.24 1368.55 1957.08 1540.35C1988.3 1587.54 2014.06 1640.53 2033.5 1699.5C2100.52 1902.83 2073.27 2076.62 1981.52 2224.77C2004.89 2803.22 2033.5 3399 2033.5 3399C2033.5 3399 -523.35 3075.27 233 2968.5C863.994 2879.43 1708.45 2665.7 1981.52 2224.77C1971.53 1977.5 1962.5 1733.4 1957.08 1540.35C1560.17 940.556 279.034 1276.49 -159 2147C-159 2147 -476.029 93.7775 -35.5 2.00009C36.5 -13 -55.9999 62 -55.9999 62Z" fill="url(#paint0_linear_92_1855)"/>
</g>
<defs>
<filter id="filter0_b_92_1855" x="-274.376" y="-4.9834" width="2350.08" height="3408.98" filterUnits="userSpaceOnUse" color-interpolation-filters="sRGB">
<feFlood flood-opacity="0" result="BackgroundImageFix"/>
<feGaussianBlur in="BackgroundImageFix" stdDeviation="2.5"/>
<feComposite in2="SourceAlpha" operator="in" result="effect1_backgroundBlur_92_1855"/>
<feBlend mode="normal" in="SourceGraphic" in2="effect1_backgroundBlur_92_1855" result="shape"/>
</filter>
<linearGradient id="paint0_linear_92_1855" x1="-206" y1="-354.5" x2="2266.49" y2="4202.5" gradientUnits="userSpaceOnUse">
<stop offset="0.432206" stop-color="#3E3C73"/>
<stop offset="1" stop-color="#8449BF"/>
</linearGradient>
</defs>
</svg>
