<?xml version="1.0" standalone="no"?>
<!DOCTYPE svg PUBLIC "-//W3C//DTD SVG 20010904//EN"
 "http://www.w3.org/TR/2001/REC-SVG-20010904/DTD/svg10.dtd">
<svg version="1.0" xmlns="http://www.w3.org/2000/svg"
 width="500.000000pt" height="500.000000pt" viewBox="0 0 500.000000 500.000000"
 preserveAspectRatio="xMidYMid meet">

<g transform="translate(0.000000,500.000000) scale(0.100000,-0.100000)"
fill="#000000" stroke="none">
<path d="M1390 2505 l0 -1615 85 0 85 0 0 1530 0 1530 940 0 940 0 -2 -257 -3
-258 -40 0 -40 0 -3 213 -2 213 -43 -6 c-23 -4 -260 -41 -527 -84 l-485 -77
-3 -1320 -2 -1320 522 -82 c288 -46 526 -83 531 -82 4 0 7 94 7 210 l0 210 45
0 45 0 0 -210 0 -210 85 0 85 0 0 1615 0 1615 -1109 0 -1110 0 -1 -1615z
m2050 -130 l0 -895 -45 0 -45 0 0 895 0 895 45 0 45 0 0 -895z m-953 233 c32
-30 31 -87 -2 -126 -22 -26 -25 -39 -25 -110 0 -73 2 -84 25 -106 51 -51 23
-146 -43 -146 -42 0 -67 33 -67 87 0 34 5 49 23 63 20 16 22 27 22 100 0 73
-3 85 -25 112 -28 34 -32 66 -10 108 23 45 65 53 102 18z"/>
</g>
</svg>
