<?xml version="1.0" standalone="no"?>
<!DOCTYPE svg PUBLIC "-//W3C//DTD SVG 20010904//EN"
 "http://www.w3.org/TR/2001/REC-SVG-20010904/DTD/svg10.dtd">
<svg version="1.0" xmlns="http://www.w3.org/2000/svg"
 width="500.000000pt" height="500.000000pt" viewBox="0 0 500.000000 500.000000"
 preserveAspectRatio="xMidYMid meet">

<g transform="translate(0.000000,500.000000) scale(0.100000,-0.100000)"
fill="#000000" stroke="none">
<path d="M3274 3916 c-28 -7 -61 -20 -74 -29 -14 -9 -36 -17 -50 -17 -14 0
-42 -9 -63 -19 -20 -10 -49 -22 -63 -25 -15 -4 -39 -19 -54 -34 -15 -15 -38
-35 -52 -44 -30 -20 -39 -58 -28 -113 4 -22 13 -66 20 -98 11 -58 63 -160 105
-207 21 -23 45 -63 45 -73 0 -3 -28 -23 -63 -46 -52 -33 -72 -41 -111 -41 -34
0 -76 -13 -150 -45 -129 -56 -183 -63 -315 -40 -95 17 -102 20 -107 44 -16 72
-26 90 -56 100 -42 15 -105 3 -123 -23 -17 -24 -19 -73 -5 -110 11 -31 154
-139 227 -173 l53 -24 158 15 c106 11 181 24 229 40 l71 24 30 -31 c50 -53 81
-134 67 -176 -3 -11 -23 -30 -43 -43 -20 -12 -54 -38 -75 -57 -37 -33 -42 -35
-150 -43 -62 -5 -206 -25 -322 -45 -276 -47 -280 -48 -425 -34 -114 11 -139
11 -280 -9 -85 -12 -225 -24 -310 -27 l-155 -6 -57 37 c-64 40 -88 69 -88 105
0 22 -3 23 -37 18 -21 -3 -50 -10 -65 -16 -25 -9 -28 -16 -27 -53 1 -63 10
-78 70 -117 47 -32 54 -42 61 -79 11 -66 11 -66 112 -57 125 10 232 6 340 -11
150 -25 197 -27 291 -11 77 14 99 14 155 3 36 -8 131 -17 212 -20 80 -4 171
-13 202 -21 32 -8 68 -15 80 -15 17 0 26 -7 30 -24 3 -14 17 -37 30 -53 14
-16 56 -88 93 -159 38 -71 107 -179 153 -240 47 -62 114 -160 150 -220 80
-133 102 -159 153 -186 78 -39 156 -4 199 89 34 76 48 195 48 413 1 159 4 211
15 230 8 14 14 35 15 47 0 25 45 83 64 83 34 0 56 65 87 260 6 41 19 98 29
125 10 28 27 109 38 180 19 118 20 144 9 278 -8 104 -8 153 -1 165 6 9 42 29
80 45 106 42 138 93 95 149 -11 13 -35 32 -54 42 -34 19 -34 19 -92 -8 -60
-27 -95 -33 -95 -16 0 6 -12 15 -26 21 -26 9 -26 10 -9 29 21 23 45 26 64 8
11 -11 13 -10 9 2 -3 8 -17 16 -31 18 -15 2 -27 9 -27 17 0 7 -6 16 -12 18 -9
4 -5 12 12 26 25 20 25 20 5 35 -25 19 -77 30 -104 21 -17 -5 -21 -2 -21 14 0
25 36 51 72 51 15 0 29 3 31 8 3 4 -15 5 -40 3 -42 -3 -45 -1 -38 15 4 11 11
36 15 57 8 41 7 42 -45 21 -18 -7 -18 -6 -6 9 12 16 9 17 -33 17 -25 0 -46 3
-46 6 0 18 23 44 40 44 10 0 22 5 25 10 7 12 4 12 -61 -4z m-569 -1677 c136
-13 164 -24 195 -74 19 -31 23 -55 27 -168 l5 -132 -36 36 -37 35 12 47 c17
62 0 82 -79 92 -52 6 -63 12 -124 68 -37 34 -82 75 -100 90 -31 27 -32 28 -8
23 14 -2 79 -10 145 -17z"/>
</g>
</svg>
