<?xml version="1.0" standalone="no"?>
<!DOCTYPE svg PUBLIC "-//W3C//DTD SVG 20010904//EN"
 "http://www.w3.org/TR/2001/REC-SVG-20010904/DTD/svg10.dtd">
<svg version="1.0" xmlns="http://www.w3.org/2000/svg"
 width="500.000000pt" height="500.000000pt" viewBox="0 0 500.000000 500.000000"
 preserveAspectRatio="xMidYMid meet">

<g transform="translate(0.000000,500.000000) scale(0.100000,-0.100000)"
fill="#000000" stroke="none">
<path d="M2300 3866 c-74 -22 -147 -56 -205 -95 -47 -32 -151 -139 -171 -176
-13 -25 -34 -41 -76 -60 -88 -39 -90 -46 -86 -234 3 -153 4 -161 27 -185 21
-22 33 -26 81 -26 34 0 64 6 78 16 21 15 22 20 22 197 l0 182 41 62 c72 111
202 203 335 238 77 20 239 20 318 -1 135 -35 276 -138 342 -250 29 -48 29 -52
34 -239 l5 -190 38 -9 c45 -11 48 -32 11 -75 -17 -21 -44 -36 -81 -47 -30 -9
-57 -14 -59 -11 -3 3 4 23 15 46 94 183 51 423 -103 577 -292 292 -786 144
-871 -261 -18 -87 -18 -113 0 -198 18 -84 50 -157 98 -220 21 -26 37 -49 37
-50 0 -2 -26 -9 -57 -16 -96 -21 -182 -68 -248 -135 -72 -73 -109 -138 -135
-242 -19 -72 -20 -112 -20 -576 l0 -498 830 0 830 0 0 506 c0 563 -1 570 -67
697 -64 122 -196 220 -335 249 -32 7 -58 15 -58 18 0 19 52 50 103 60 121 24
171 58 188 126 7 29 18 45 35 53 42 19 54 66 54 215 0 74 -4 146 -10 161 -7
18 -27 33 -70 51 -48 21 -65 36 -91 75 -77 120 -249 239 -399 274 -102 23
-287 19 -380 -9z m374 -254 c215 -101 314 -353 217 -557 -42 -90 -58 -105
-119 -112 -48 -5 -54 -4 -77 22 -25 26 -27 27 -131 23 -115 -3 -124 -8 -124
-65 0 -54 19 -63 133 -63 88 0 103 3 123 21 14 13 32 19 50 17 l29 -3 -45 -29
c-116 -76 -277 -87 -403 -29 -135 64 -225 183 -247 329 -26 172 64 350 219
433 79 42 121 51 223 47 71 -3 98 -9 152 -34z m-358 -869 c61 -24 82 -27 184
-27 101 0 124 3 186 27 81 30 120 33 215 13 139 -30 236 -107 298 -236 l36
-75 3 -482 3 -483 -741 0 -740 0 0 444 c0 256 4 466 10 496 33 171 173 312
340 339 95 15 135 12 206 -16z"/>
<path d="M2414 2524 c72 -89 84 -108 76 -127 -4 -12 -49 -118 -99 -236 -50
-117 -88 -218 -84 -225 4 -6 49 -64 101 -128 l93 -117 100 124 c54 69 99 128
99 132 0 5 -43 108 -95 231 -52 123 -95 229 -95 237 0 7 21 39 47 72 26 32 62
77 81 101 l34 42 -171 0 -172 0 85 -106z"/>
</g>
</svg>
