<?xml version="1.0" standalone="no"?>
<!DOCTYPE svg PUBLIC "-//W3C//DTD SVG 20010904//EN"
 "http://www.w3.org/TR/2001/REC-SVG-20010904/DTD/svg10.dtd">
<svg version="1.0" xmlns="http://www.w3.org/2000/svg"
 width="500.000000pt" height="500.000000pt" viewBox="0 0 500.000000 500.000000"
 preserveAspectRatio="xMidYMid meet">

<g transform="translate(0.000000,500.000000) scale(0.100000,-0.100000)"
fill="#000000" stroke="none">
<path d="M1623 3673 c4 -58 7 -634 7 -1280 l0 -1173 60 0 60 0 0 1215 0 1215
750 0 750 0 0 -206 0 -205 -37 3 -38 3 0 145 c-1 80 -2 155 -3 168 l-2 22
-670 0 -670 0 2 -1177 3 -1178 667 -3 668 -2 2 167 3 168 35 0 35 0 3 -168 2
-167 65 0 65 0 0 1280 0 1280 -882 0 -881 0 6 -107z m1627 -1273 l0 -710 -40
0 -40 0 0 703 c0 387 3 707 7 710 3 4 21 7 40 7 l33 0 0 -710z m-1190 180 c28
-28 26 -71 -5 -100 -21 -20 -25 -33 -25 -81 0 -49 4 -62 25 -83 34 -34 33 -78
-1 -105 -15 -12 -34 -21 -44 -21 -10 0 -29 9 -44 21 -34 27 -35 72 -1 103 21
20 25 32 25 84 0 52 -4 65 -25 86 -46 46 -19 116 45 116 17 0 39 -9 50 -20z"/>
</g>
</svg>
