<svg width="17" height="18" viewBox="0 0 17 18" fill="none" xmlns="http://www.w3.org/2000/svg">
<path d="M11.5917 9.59169C12.4087 8.94891 13.005 8.06746 13.2977 7.06997C13.5904 6.07249 13.5649 5.00858 13.2248 4.02625C12.8847 3.04391 12.2469 2.19202 11.4001 1.58907C10.5532 0.986122 9.53954 0.662109 8.5 0.662109C7.46045 0.662109 6.44676 0.986122 5.59994 1.58907C4.75312 2.19202 4.11528 3.04391 3.77517 4.02625C3.43506 5.00858 3.40959 6.07249 3.7023 7.06997C3.99501 8.06746 4.59134 8.94891 5.40833 9.59169C4.0084 10.1526 2.7869 11.0828 1.87407 12.2833C0.961246 13.4838 0.3913 14.9094 0.224997 16.4084C0.212959 16.5178 0.222594 16.6285 0.253352 16.7342C0.284109 16.8399 0.335387 16.9386 0.404257 17.0245C0.543346 17.1979 0.74565 17.309 0.966664 17.3334C1.18768 17.3577 1.4093 17.2932 1.58277 17.1541C1.75624 17.015 1.86735 16.8127 1.89166 16.5917C2.07465 14.9627 2.8514 13.4582 4.07351 12.3657C5.29562 11.2732 6.87741 10.6692 8.51667 10.6692C10.1559 10.6692 11.7377 11.2732 12.9598 12.3657C14.1819 13.4582 14.9587 14.9627 15.1417 16.5917C15.1643 16.7965 15.262 16.9856 15.4159 17.1225C15.5698 17.2595 15.769 17.3346 15.975 17.3334H16.0667C16.2851 17.3082 16.4848 17.1978 16.6221 17.0261C16.7595 16.8544 16.8234 16.6353 16.8 16.4167C16.6329 14.9135 16.0599 13.4842 15.1424 12.2819C14.2249 11.0795 12.9974 10.1496 11.5917 9.59169V9.59169ZM8.5 9.00002C7.84073 9.00002 7.19626 8.80453 6.6481 8.43825C6.09993 8.07198 5.67269 7.55139 5.4204 6.9423C5.16811 6.33321 5.1021 5.66299 5.23071 5.01639C5.35933 4.36979 5.6768 3.77584 6.14297 3.30967C6.60915 2.84349 7.20309 2.52602 7.8497 2.39741C8.4963 2.26879 9.16652 2.3348 9.77561 2.58709C10.3847 2.83938 10.9053 3.26662 11.2716 3.81479C11.6378 4.36295 11.8333 5.00742 11.8333 5.66669C11.8333 6.55074 11.4821 7.39859 10.857 8.02371C10.2319 8.64883 9.38405 9.00002 8.5 9.00002Z" fill="white"/>
</svg>
